<?xml version="1.0" standalone="no"?>
<!DOCTYPE svg PUBLIC "-//W3C//DTD SVG 20010904//EN"
 "http://www.w3.org/TR/2001/REC-SVG-20010904/DTD/svg10.dtd">
<svg version="1.0" xmlns="http://www.w3.org/2000/svg"
 width="64.000000pt" height="64.000000pt" viewBox="0 0 64.000000 64.000000"
 preserveAspectRatio="xMidYMid meet">

<g transform="translate(0.000000,64.000000) scale(0.100000,-0.100000)"
fill="#000000" stroke="none">
<path d="M182 596 c-36 -20 -36 -22 -1 -82 21 -38 29 -59 21 -62 -21 -7 -35
-42 -23 -56 8 -9 -3 -27 -44 -69 -92 -95 -107 -206 -36 -256 41 -29 102 -41
221 -41 119 0 180 12 221 41 71 50 56 161 -36 256 -41 42 -52 60 -44 69 12 14
-2 49 -23 56 -8 3 -1 23 20 60 18 30 32 58 32 61 0 3 -14 13 -32 21 -35 18
-94 21 -103 6 -3 -5 -19 -10 -35 -10 -16 0 -32 5 -35 10 -8 14 -75 11 -103 -4z
m88 -21 c33 -19 64 -19 100 0 23 12 34 13 55 3 32 -14 31 -22 -5 -80 -31 -49
-58 -65 -46 -28 3 11 9 29 12 40 12 38 -17 21 -33 -20 -10 -25 -22 -40 -33
-40 -11 0 -23 15 -33 40 -16 41 -45 58 -33 20 3 -11 9 -29 12 -40 12 -37 -15
-21 -46 28 -36 57 -37 66 -7 80 28 14 28 14 57 -3z m168 -162 c3 -10 -25 -13
-117 -13 -111 0 -133 5 -114 24 13 12 226 2 231 -11z m32 -89 c118 -110 119
-222 3 -255 -62 -18 -244 -18 -306 0 -116 33 -115 145 3 255 l49 46 101 0 101
0 49 -46z"/>
<path d="M310 297 c0 -7 -9 -18 -20 -25 -37 -23 -21 -66 28 -74 37 -5 30 -23
-10 -26 -36 -3 -55 -22 -22 -22 9 0 18 -9 21 -20 6 -23 23 -27 23 -5 0 8 9 19
20 25 43 23 15 80 -39 80 -12 0 -21 5 -21 10 0 6 15 10 34 10 40 0 58 19 27
27 -12 3 -21 12 -21 19 0 8 -4 14 -10 14 -5 0 -10 -6 -10 -13z"/>
</g>
</svg>
